<svg xmlns:xlink="http://www.w3.org/1999/xlink" xmlns="http://www.w3.org/2000/svg" aria-hidden="true" focusable="false" role="presentation" class="icon icon-bag" viewBox="0 0 22 19" width="22"  height="19" ><path d="M14.57 6L13 .79a.52.52 0 0 0-.63-.34.51.51 0 0 0-.33.63L13.53 6H8.47l1.47-4.92a.51.51 0 0 0-.33-.63.52.52 0 0 0-.63.34L7.43 6H0v1.9L2.94 19h16.12L22 8.16V6h-7.43zM21 8l-2.71 10H3.71L1 7.77V7h20v1zM6.81 10.48a.65.65 0 1 0 0-1.3.65.65 0 0 0 0 1.3zm8.38 0a.65.65 0 1 0 0-1.3.65.65 0 0 0 0 1.3z"></path></svg>